<svg width="988" height="567" viewBox="0 0 988 567" fill="none" xmlns="http://www.w3.org/2000/svg">
<path d="M1.49658 60.3955L4.28135 0.522949L88.5206 38.8135L99.6597 54.8259V89.6355L75.2929 104.256L11.2433 76.4079L1.49658 60.3955Z" fill="#0B48A3"/>
<path d="M198.022 162.169L195.522 222.054L111.102 184.164L99.8868 168.205L99.7212 133.396L124.018 118.66L188.2 146.203L198.022 162.169Z" fill="#0B48A3"/>
<path d="M11.9741 138.289V204.872L175.776 103.9L184.63 90.7297V18.293L16.1513 124.81L11.9741 138.289Z" fill="#0367FD"/>
<path d="M25.898 133.861C25.898 139.244 22.4694 143.607 18.2399 143.607C14.0104 143.607 11.9741 142.028 11.9741 136.645C11.9741 131.263 14.0104 124.114 18.2399 124.114C22.4694 124.114 25.898 128.478 25.898 133.861Z" fill="#0367FD"/>
<path d="M25.898 133.861C25.898 139.244 22.4694 143.607 18.2399 143.607C14.0104 143.607 11.9741 142.028 11.9741 136.645C11.9741 131.263 14.0104 124.114 18.2399 124.114C22.4694 124.114 25.898 128.478 25.898 133.861Z" fill="#0367FD"/>
<path d="M25.898 133.861C25.898 139.244 22.4694 143.607 18.2399 143.607C14.0104 143.607 11.9741 142.028 11.9741 136.645C11.9741 131.263 14.0104 124.114 18.2399 124.114C22.4694 124.114 25.898 128.478 25.898 133.861Z" fill="#0367FD"/>
<path d="M184.63 94.1777C184.63 99.5607 170.758 108.102 166.529 108.102C162.299 108.102 170.706 102.345 170.706 96.9625C170.706 91.5796 176.223 80.2539 180.453 80.2539C184.682 80.2539 184.63 88.7948 184.63 94.1777Z" fill="#0367FD"/>
<path d="M6.38723 241.2H37.6192V247.536H13.8112V260.336H35.7632V266.608H13.8112V279.664H37.6192V286H6.38723V241.2ZM56.3492 262.896L41.4372 241.2H49.7572L60.5092 257.008L71.2612 241.2H79.5812L64.7332 263.152L80.2212 286H71.9012L60.5092 269.104L49.1172 286H40.7972L56.3492 262.896ZM95.5647 247.536H82.1247V241.2H116.429V247.536H102.989V286H95.5647V247.536ZM156.248 271.536V286H148.824V273.328L144.216 268.272H129.624V286H122.2V241.2H149.464L155.992 247.792V261.552L151.32 266.224L156.248 271.536ZM129.624 262.128H146.136L148.696 259.568V250.032L146.136 247.472H129.624V262.128ZM177.303 241.2H184.343L200.535 286H192.983L189.143 275.376H172.439L168.599 286H161.047L177.303 241.2ZM187.415 269.168L180.823 250.224H180.695L174.231 269.168H187.415Z" fill="white"/>
<path d="M3.99723 318.086V314.742H8.32923V316.756L9.77323 318.2H18.0572L19.5772 316.68V311.778L18.0952 310.296H7.98723L4.07323 306.42V299.314L7.98723 295.4H19.6912L23.6052 299.314V302.696H19.2732V300.644L17.7912 299.2H9.88723L8.40523 300.644V305.052L9.88723 306.496H19.9952L23.9092 310.41V318.01L19.9192 322H7.91123L3.99723 318.086ZM28.0857 317.706V299.694L32.3797 295.4H45.5277L49.8217 299.694V317.706L45.5277 322H32.3797L28.0857 317.706ZM43.2477 318.2L45.4137 316.072V301.328L43.2477 299.2H34.6597L32.4937 301.328V316.072L34.6597 318.2H43.2477ZM54.7762 295.4H72.9402V299.162H59.1842V307.294H71.1162V311.056H59.1842V322H54.7762V295.4ZM82.4539 299.162H74.4739V295.4H94.8419V299.162H86.8619V322H82.4539V299.162ZM96.7484 295.4H101.194L104.766 315.426H104.88L110.542 295.4H114.076L119.548 315.426H119.7L123.234 295.4H127.68L122.208 322H117.952L112.366 302.05H112.252L106.476 322H102.22L96.7484 295.4ZM137.146 295.4H141.326L150.94 322H146.456L144.176 315.692H134.258L131.978 322H127.494L137.146 295.4ZM143.15 312.006L139.236 300.758H139.16L135.322 312.006H143.15ZM174.186 313.412V322H169.778V314.476L167.042 311.474H158.378V322H153.97V295.4H170.158L174.034 299.314V307.484L171.26 310.258L174.186 313.412ZM158.378 307.826H168.182L169.702 306.306V300.644L168.182 299.124H158.378V307.826ZM179.315 295.4H197.859V299.162H183.723V306.762H196.757V310.486H183.723V318.238H197.859V322H179.315V295.4Z" fill="#0367FD"/>
</svg>
