<svg width="314" height="183" viewBox="0 0 314 183" fill="none" xmlns="http://www.w3.org/2000/svg">
<path d="M313.515 90.2763L223.475 0.517046C222.784 -0.172349 221.678 -0.172349 221.057 0.517046C210.829 10.7201 202.606 22.3019 196.594 34.6421L162.389 0.517046C161.698 -0.172349 160.592 -0.172349 159.971 0.517046C149.744 10.7201 141.52 22.3019 135.509 34.6421L101.303 0.517046C100.612 -0.172349 99.5065 -0.172349 98.8846 0.517046C88.6575 10.7201 80.4344 22.3019 74.4226 34.6421L40.1481 0.517046C39.4571 -0.172349 38.3515 -0.172349 37.7296 0.517046C-12.5765 50.705 -12.5765 132.329 37.7296 182.517C38.0751 182.862 38.4897 183 38.9734 183C39.4571 183 39.8717 182.862 40.2172 182.517L74.4226 148.392C80.5035 160.733 88.6575 172.245 98.8846 182.517C99.2301 182.862 99.6447 183 100.128 183C100.612 183 101.027 182.793 101.372 182.517L135.578 148.392C141.659 160.733 149.813 172.245 160.04 182.517C160.385 182.862 160.8 183 161.284 183C161.767 183 162.182 182.793 162.527 182.517L196.733 148.392C202.814 160.733 210.968 172.245 221.195 182.517C221.54 182.862 221.955 183 222.439 183C222.922 183 223.337 182.793 223.682 182.517L313.653 92.7581C314.137 92.0687 314.137 90.9657 313.515 90.2763ZM161.145 4.17084L194.936 37.8823C188.44 52.1528 184.64 67.3195 183.603 82.624L137.996 37.1239C143.732 25.3353 151.471 14.1671 161.145 4.17084ZM125.696 90.7589L126.456 91.5172L125.696 92.2756C125.696 91.793 125.696 91.2415 125.696 90.7589ZM122.31 95.7225L75.39 142.532C60.9477 110.2 61.0168 72.9036 75.39 40.5709L122.31 87.3809C122.241 90.1384 122.241 92.896 122.31 95.7225ZM130.119 92.7581C130.464 92.4134 130.602 91.9998 130.602 91.5172C130.602 91.0347 130.395 90.621 130.119 90.2763L125.765 85.9331C126.456 70.4217 130.05 54.9793 136.476 40.502L183.396 87.3119C183.327 90.0695 183.327 92.896 183.396 95.6536L136.476 142.464C130.05 127.986 126.456 112.544 125.765 97.0324L130.119 92.7581ZM186.782 90.7589L187.542 91.5172L186.782 92.2756C186.782 91.793 186.782 91.2415 186.782 90.7589ZM191.274 92.7581C191.965 92.0687 191.965 90.9657 191.274 90.3453L186.92 86.0021C187.611 70.4907 191.135 55.0482 197.631 40.5709L248.697 91.5172L197.631 142.464C191.205 127.986 187.611 112.544 186.92 97.0324L191.274 92.7581ZM100.059 4.17084L133.85 37.8823C127.355 52.1528 123.554 67.3195 122.517 82.624L76.9103 37.1239C82.6457 25.3353 90.3851 14.1671 100.059 4.17084ZM38.9734 178.864C-8.36131 130.33 -8.36131 52.7043 38.9734 4.23978L72.7642 37.9512C57.2163 71.8695 57.2163 111.165 72.7642 145.152L38.9734 178.864ZM100.059 178.864C90.3851 168.936 82.6457 157.768 76.9103 145.842L122.517 100.341C123.554 115.715 127.355 130.882 133.85 145.083L100.059 178.864ZM161.145 178.864C151.471 168.936 143.732 157.768 137.996 145.842L183.603 100.341C184.64 115.715 188.44 130.882 194.936 145.083L161.145 178.864ZM222.3 178.864C212.626 168.936 204.887 157.768 199.151 145.842L252.36 92.7581C252.705 92.4134 252.843 91.9998 252.843 91.5172C252.843 91.0347 252.636 90.621 252.36 90.2763L199.151 37.1929C204.887 25.2663 212.557 14.0981 222.3 4.17084L309.852 91.5172L222.3 178.864Z" fill="#0367FD"/>
</svg>
