<svg width="1623" height="615" viewBox="0 0 1623 615" fill="none" xmlns="http://www.w3.org/2000/svg">
<path d="M202.533 248.046L103.523 307.768" stroke="#0367FD" stroke-width="2"/>
<path d="M102.702 189.706L300.751 74.4045" stroke="#0367FD" stroke-width="2"/>
<path d="M501.428 187.97L300.744 73.3689L300.312 11.231" stroke="#0367FD" stroke-width="2"/>
<path d="M502.234 303.961L402.406 246.042L400.754 8.4614" stroke="#0367FD" stroke-width="2"/>
<path d="M502.797 533.879L405.85 592.551L304.991 535.254L302.586 189.353L501.664 73.0078" stroke="#0367FD" stroke-width="2"/>
<path d="M804.966 360.496L603.323 245.26L802.386 131.873" stroke="#0367FD" stroke-width="2"/>
<path d="M802.521 244.553L404.016 477.603L303.171 422.377L204.139 478.992L104.329 423.759L102.702 189.706L3.92814 134.466L101.91 75.7868L101.478 13.6488" stroke="#0367FD" stroke-width="2"/>
<path d="M802.508 478.522L603.094 361.258" stroke="#0367FD" stroke-width="2"/>
<path d="M802.915 478.109L603.685 595.318L503.825 532.836L501.435 189.006L702.584 72.6467L803.205 131.867" stroke="#0367FD" stroke-width="2"/>
<path d="M703.731 535.589L603.9 477.249L600.631 7.07176" stroke="#0367FD" stroke-width="2"/>
<path d="M704.76 534.546L702.097 300.5" stroke="#0367FD" stroke-width="2"/>
<path d="M703.355 419.387L805.785 360.49" stroke="#0367FD" stroke-width="2"/>
<path d="M802.524 244.963L501.382 71.8152L500.942 8.58431" stroke="#0367FD" stroke-width="2"/>
<path d="M702.584 72.6467L702.13 7.40189" stroke="#0367FD" stroke-width="2"/>
<path d="M601.259 246.31L303.17 422.377" stroke="#0367FD" stroke-width="2"/>
<path d="M503.048 420.988L202.54 249.082L200.877 9.85094" stroke="#0367FD" stroke-width="2"/>
<path d="M402.417 247.692L202.304 364.044L2.66303 250.471L1.0143 13.3117" stroke="#0367FD" stroke-width="2"/>
<path d="M301.551 189.36L100.874 75.7941" stroke="#0367FD" stroke-width="2"/>
<circle cx="601.466" cy="127.205" r="22.2845" transform="rotate(179.602 601.466 127.205)" fill="#0367FD" stroke="#0367FD"/>
<circle cx="201.741" cy="134.127" r="16.0705" transform="rotate(179.602 201.741 134.127)" fill="#0367FD" stroke="#0367FD"/>
<circle cx="303.385" cy="304.308" r="19.1775" transform="rotate(179.602 303.385 304.308)" fill="#0367FD" stroke="#0367FD"/>
<circle cx="403.751" cy="588.423" r="20.2131" transform="rotate(179.602 403.751 588.423)" fill="#0367FD" stroke="#0367FD"/>
<path d="M604.921 475.17L502.797 533.879" stroke="#0367FD" stroke-width="2"/>
<path d="M1003.34 244.937L904.327 304.66" stroke="#0367FD" stroke-width="2"/>
<path d="M903.506 186.598L1101.56 71.2958" stroke="#0367FD" stroke-width="2"/>
<path d="M1302.23 184.861L1101.55 70.26L1101.12 8.1221" stroke="#0367FD" stroke-width="2"/>
<path d="M1303.04 300.852L1203.21 242.933L1201.56 5.35251" stroke="#0367FD" stroke-width="2"/>
<path d="M1303.6 530.77L1206.65 589.442L1105.79 532.145L1103.39 186.244L1302.47 69.8991" stroke="#0367FD" stroke-width="2"/>
<path d="M1616.27 365.994L1404.13 242.151L1618.7 119.485" stroke="#0367FD" stroke-width="2"/>
<path d="M1614.31 233.44L1204.82 474.494L1103.97 419.268L1004.94 475.884L905.133 420.651L903.506 186.598L804.732 131.357L902.714 72.6781L902.282 10.5402" stroke="#0367FD" stroke-width="2"/>
<path d="M1618.13 485.085L1403.9 358.149" stroke="#0367FD" stroke-width="2"/>
<path d="M1617.99 465.407L1404.49 592.209L1304.63 529.727L1302.24 185.897L1503.39 69.5378L1617.78 137.098" stroke="#0367FD" stroke-width="2"/>
<path d="M1504.53 532.48L1404.7 474.14L1401.44 3.96299" stroke="#0367FD" stroke-width="2"/>
<path d="M1505.56 531.437L1502.9 297.391" stroke="#0367FD" stroke-width="2"/>
<path d="M1504.76 416.482L1616.16 350.46" stroke="#0367FD" stroke-width="2"/>
<path d="M1615.45 248.968L1302.46 68.8635L1302.02 5.68991" stroke="#0367FD" stroke-width="2"/>
<path d="M1503.39 69.538L1502.93 4.29312" stroke="#0367FD" stroke-width="2"/>
<path d="M1402.06 243.201L1103.97 419.268" stroke="#0367FD" stroke-width="2"/>
<path d="M1303.85 417.879L1003.34 245.973L1001.68 6.74205" stroke="#0367FD" stroke-width="2"/>
<path d="M1203.22 244.584L1003.11 360.936L803.467 247.363L801.818 10.203" stroke="#0367FD" stroke-width="2"/>
<path d="M1102.35 186.251L901.678 72.6853" stroke="#0367FD" stroke-width="2"/>
<circle cx="1402.27" cy="124.097" r="22.2845" transform="rotate(179.602 1402.27 124.097)" fill="#0367FD" stroke="#0367FD"/>
<circle cx="1002.55" cy="131.018" r="16.0705" transform="rotate(179.602 1002.55 131.018)" fill="#0367FD" stroke="#0367FD"/>
<circle cx="1104.19" cy="301.199" r="19.1775" transform="rotate(179.602 1104.19 301.199)" fill="#0367FD" stroke="#0367FD"/>
<circle cx="1204.55" cy="585.314" r="20.2131" transform="rotate(179.602 1204.55 585.314)" fill="#0367FD" stroke="#0367FD"/>
<path d="M1405.73 472.062L1303.6 530.77" stroke="#0367FD" stroke-width="2"/>
<path d="M802.099 478.525L905.408 420.259" stroke="#0367FD" stroke-width="2"/>
<path d="M804.966 360.496L904.537 419.628" stroke="#0367FD" stroke-width="2"/>
<path d="M904.143 304.081L804.152 361.321" stroke="#0367FD" stroke-width="2"/>
</svg>
